<svg xmlns="http://www.w3.org/2000/svg" version="1.1" xmlns:xlink="http://www.w3.org/1999/xlink" xmlns:svgjs="http://svgjs.dev/svgjs" width="128" height="128" viewBox="0 0 128 128"><g transform="matrix(0.8046875,0,0,0.8046875,12.612792253521128,12.612792253521128)"><svg viewBox="0 0 142 142" data-background-color="#ffffff" preserveAspectRatio="xMidYMid meet" height="128" width="128" xmlns="http://www.w3.org/2000/svg" xmlns:xlink="http://www.w3.org/1999/xlink"><g id="tight-bounds" transform="matrix(1,0,0,1,-0.15550000000000352,-0.15550000000000352)"><svg viewBox="0 0 142.31066447748242 142.31066447748242" height="142.31066447748242" width="142.31066447748242"><g><svg></svg></g><g><svg viewBox="0 0 142.31066447748242 142.31066447748242" height="142.31066447748242" width="142.31066447748242"><g><path d="M0 71.155c0-39.298 31.857-71.155 71.155-71.155 39.298 0 71.155 31.857 71.156 71.155 0 39.298-31.857 71.155-71.156 71.156-39.298 0-71.155-31.857-71.155-71.156zM71.155 134.886c35.197 0 63.731-28.533 63.731-63.731 0-35.197-28.533-63.731-63.731-63.73-35.197 0-63.731 28.533-63.73 63.73 0 35.197 28.533 63.731 63.73 63.731z" data-fill-palette-color="tertiary" fill="#0074ff" stroke="transparent"></path><ellipse rx="68.30911894919156" ry="68.30911894919156" cx="71.15533223874121" cy="71.15533223874121" fill="#0074ff" stroke="transparent" stroke-width="0" fill-opacity="1" data-fill-palette-color="tertiary"></ellipse></g><g transform="matrix(1,0,0,1,32.75886740875405,29.989108276746492)"><svg viewBox="0 0 76.79292965997432 82.33244792398943" height="82.33244792398943" width="76.79292965997432"><g><svg viewBox="0 0 76.79292965997432 82.33244792398943" height="82.33244792398943" width="76.79292965997432"><g><svg viewBox="0 0 76.79292965997432 82.33244792398943" height="82.33244792398943" width="76.79292965997432"><g><svg viewBox="0 0 76.79292965997432 82.33244792398943" height="82.33244792398943" width="76.79292965997432"><g><svg viewBox="0 0 76.79292965997432 82.33244792398943" height="82.33244792398943" width="76.79292965997432"><g transform="matrix(1,0,0,1,0,0)"><svg width="76.79292965997432" viewBox="5.35 -37.9 35.35 37.9" height="82.33244792398943" data-palette-color="#ffffff"><path d="M35.35-37.9L40.7-37.9 40.7 0 35.85 0 35.85-30.55 24.25-14.4 21.7-14.4 10.2-30.55 10.2 0 5.35 0 5.35-37.9 10.65-37.9 23-20.6 35.35-37.9Z" opacity="1" transform="matrix(1,0,0,1,0,0)" fill="#ffffff" class="undefined-text-0" data-fill-palette-color="quaternary" id="text-0"></path></svg></g></svg></g></svg></g></svg></g><g></g></svg></g></svg></g></svg></g><defs></defs></svg><rect width="142.31066447748242" height="142.31066447748242" fill="none" stroke="none" visibility="hidden"></rect></g></svg></g></svg>